<?xml version="1.0" encoding="UTF-8"?>
<svg width="70px" height="150px" viewBox="0 0 70 150" version="1.1" xmlns="http://www.w3.org/2000/svg" xmlns:xlink="http://www.w3.org/1999/xlink">
    <!-- Generator: sketchtool 52.5 (67469) - http://www.bohemiancoding.com/sketch -->
    <title>6DB80EF8-9071-40AC-8B85-C3263751FED3</title>
    <desc>Created with sketchtool.</desc>
    <g id="Page-1" stroke="none" stroke-width="1" fill="none" fill-rule="evenodd">
        <g id="about-us" transform="translate(-409.000000, -425.000000)" fill="#D8D8D8" fill-rule="nonzero">
            <path d="M412,431 C410.343146,431 409,429.656854 409,428 C409,426.343146 410.343146,425 412,425 C413.656854,425 415,426.343146 415,428 C415,429.656854 413.656854,431 412,431 Z M476,575 C474.343146,575 473,573.656854 473,572 C473,570.343146 474.343146,569 476,569 C477.656854,569 479,570.343146 479,572 C479,573.656854 477.656854,575 476,575 Z M460,575 C458.343146,575 457,573.656854 457,572 C457,570.343146 458.343146,569 460,569 C461.656854,569 463,570.343146 463,572 C463,573.656854 461.656854,575 460,575 Z M444,575 C442.343146,575 441,573.656854 441,572 C441,570.343146 442.343146,569 444,569 C445.656854,569 447,570.343146 447,572 C447,573.656854 445.656854,575 444,575 Z M428,575 C426.343146,575 425,573.656854 425,572 C425,570.343146 426.343146,569 428,569 C429.656854,569 431,570.343146 431,572 C431,573.656854 429.656854,575 428,575 Z M412,575 C410.343146,575 409,573.656854 409,572 C409,570.343146 410.343146,569 412,569 C413.656854,569 415,570.343146 415,572 C415,573.656854 413.656854,575 412,575 Z M476,559 C474.343146,559 473,557.656854 473,556 C473,554.343146 474.343146,553 476,553 C477.656854,553 479,554.343146 479,556 C479,557.656854 477.656854,559 476,559 Z M460,559 C458.343146,559 457,557.656854 457,556 C457,554.343146 458.343146,553 460,553 C461.656854,553 463,554.343146 463,556 C463,557.656854 461.656854,559 460,559 Z M444,559 C442.343146,559 441,557.656854 441,556 C441,554.343146 442.343146,553 444,553 C445.656854,553 447,554.343146 447,556 C447,557.656854 445.656854,559 444,559 Z M428,559 C426.343146,559 425,557.656854 425,556 C425,554.343146 426.343146,553 428,553 C429.656854,553 431,554.343146 431,556 C431,557.656854 429.656854,559 428,559 Z M412,559 C410.343146,559 409,557.656854 409,556 C409,554.343146 410.343146,553 412,553 C413.656854,553 415,554.343146 415,556 C415,557.656854 413.656854,559 412,559 Z M476,543 C474.343146,543 473,541.656854 473,540 C473,538.343146 474.343146,537 476,537 C477.656854,537 479,538.343146 479,540 C479,541.656854 477.656854,543 476,543 Z M460,543 C458.343146,543 457,541.656854 457,540 C457,538.343146 458.343146,537 460,537 C461.656854,537 463,538.343146 463,540 C463,541.656854 461.656854,543 460,543 Z M444,543 C442.343146,543 441,541.656854 441,540 C441,538.343146 442.343146,537 444,537 C445.656854,537 447,538.343146 447,540 C447,541.656854 445.656854,543 444,543 Z M428,543 C426.343146,543 425,541.656854 425,540 C425,538.343146 426.343146,537 428,537 C429.656854,537 431,538.343146 431,540 C431,541.656854 429.656854,543 428,543 Z M412,543 C410.343146,543 409,541.656854 409,540 C409,538.343146 410.343146,537 412,537 C413.656854,537 415,538.343146 415,540 C415,541.656854 413.656854,543 412,543 Z M476,527 C474.343146,527 473,525.656854 473,524 C473,522.343146 474.343146,521 476,521 C477.656854,521 479,522.343146 479,524 C479,525.656854 477.656854,527 476,527 Z M460,527 C458.343146,527 457,525.656854 457,524 C457,522.343146 458.343146,521 460,521 C461.656854,521 463,522.343146 463,524 C463,525.656854 461.656854,527 460,527 Z M444,527 C442.343146,527 441,525.656854 441,524 C441,522.343146 442.343146,521 444,521 C445.656854,521 447,522.343146 447,524 C447,525.656854 445.656854,527 444,527 Z M428,527 C426.343146,527 425,525.656854 425,524 C425,522.343146 426.343146,521 428,521 C429.656854,521 431,522.343146 431,524 C431,525.656854 429.656854,527 428,527 Z M412,527 C410.343146,527 409,525.656854 409,524 C409,522.343146 410.343146,521 412,521 C413.656854,521 415,522.343146 415,524 C415,525.656854 413.656854,527 412,527 Z M476,511 C474.343146,511 473,509.656854 473,508 C473,506.343146 474.343146,505 476,505 C477.656854,505 479,506.343146 479,508 C479,509.656854 477.656854,511 476,511 Z M460,511 C458.343146,511 457,509.656854 457,508 C457,506.343146 458.343146,505 460,505 C461.656854,505 463,506.343146 463,508 C463,509.656854 461.656854,511 460,511 Z M444,511 C442.343146,511 441,509.656854 441,508 C441,506.343146 442.343146,505 444,505 C445.656854,505 447,506.343146 447,508 C447,509.656854 445.656854,511 444,511 Z M428,511 C426.343146,511 425,509.656854 425,508 C425,506.343146 426.343146,505 428,505 C429.656854,505 431,506.343146 431,508 C431,509.656854 429.656854,511 428,511 Z M412,511 C410.343146,511 409,509.656854 409,508 C409,506.343146 410.343146,505 412,505 C413.656854,505 415,506.343146 415,508 C415,509.656854 413.656854,511 412,511 Z M476,495 C474.343146,495 473,493.656854 473,492 C473,490.343146 474.343146,489 476,489 C477.656854,489 479,490.343146 479,492 C479,493.656854 477.656854,495 476,495 Z M460,495 C458.343146,495 457,493.656854 457,492 C457,490.343146 458.343146,489 460,489 C461.656854,489 463,490.343146 463,492 C463,493.656854 461.656854,495 460,495 Z M444,495 C442.343146,495 441,493.656854 441,492 C441,490.343146 442.343146,489 444,489 C445.656854,489 447,490.343146 447,492 C447,493.656854 445.656854,495 444,495 Z M428,495 C426.343146,495 425,493.656854 425,492 C425,490.343146 426.343146,489 428,489 C429.656854,489 431,490.343146 431,492 C431,493.656854 429.656854,495 428,495 Z M412,495 C410.343146,495 409,493.656854 409,492 C409,490.343146 410.343146,489 412,489 C413.656854,489 415,490.343146 415,492 C415,493.656854 413.656854,495 412,495 Z M476,479 C474.343146,479 473,477.656854 473,476 C473,474.343146 474.343146,473 476,473 C477.656854,473 479,474.343146 479,476 C479,477.656854 477.656854,479 476,479 Z M460,479 C458.343146,479 457,477.656854 457,476 C457,474.343146 458.343146,473 460,473 C461.656854,473 463,474.343146 463,476 C463,477.656854 461.656854,479 460,479 Z M444,479 C442.343146,479 441,477.656854 441,476 C441,474.343146 442.343146,473 444,473 C445.656854,473 447,474.343146 447,476 C447,477.656854 445.656854,479 444,479 Z M428,479 C426.343146,479 425,477.656854 425,476 C425,474.343146 426.343146,473 428,473 C429.656854,473 431,474.343146 431,476 C431,477.656854 429.656854,479 428,479 Z M412,479 C410.343146,479 409,477.656854 409,476 C409,474.343146 410.343146,473 412,473 C413.656854,473 415,474.343146 415,476 C415,477.656854 413.656854,479 412,479 Z M476,463 C474.343146,463 473,461.656854 473,460 C473,458.343146 474.343146,457 476,457 C477.656854,457 479,458.343146 479,460 C479,461.656854 477.656854,463 476,463 Z M460,463 C458.343146,463 457,461.656854 457,460 C457,458.343146 458.343146,457 460,457 C461.656854,457 463,458.343146 463,460 C463,461.656854 461.656854,463 460,463 Z M444,463 C442.343146,463 441,461.656854 441,460 C441,458.343146 442.343146,457 444,457 C445.656854,457 447,458.343146 447,460 C447,461.656854 445.656854,463 444,463 Z M428,463 C426.343146,463 425,461.656854 425,460 C425,458.343146 426.343146,457 428,457 C429.656854,457 431,458.343146 431,460 C431,461.656854 429.656854,463 428,463 Z M412,463 C410.343146,463 409,461.656854 409,460 C409,458.343146 410.343146,457 412,457 C413.656854,457 415,458.343146 415,460 C415,461.656854 413.656854,463 412,463 Z M476,447 C474.343146,447 473,445.656854 473,444 C473,442.343146 474.343146,441 476,441 C477.656854,441 479,442.343146 479,444 C479,445.656854 477.656854,447 476,447 Z M460,447 C458.343146,447 457,445.656854 457,444 C457,442.343146 458.343146,441 460,441 C461.656854,441 463,442.343146 463,444 C463,445.656854 461.656854,447 460,447 Z M444,447 C442.343146,447 441,445.656854 441,444 C441,442.343146 442.343146,441 444,441 C445.656854,441 447,442.343146 447,444 C447,445.656854 445.656854,447 444,447 Z M428,447 C426.343146,447 425,445.656854 425,444 C425,442.343146 426.343146,441 428,441 C429.656854,441 431,442.343146 431,444 C431,445.656854 429.656854,447 428,447 Z M412,447 C410.343146,447 409,445.656854 409,444 C409,442.343146 410.343146,441 412,441 C413.656854,441 415,442.343146 415,444 C415,445.656854 413.656854,447 412,447 Z M476,431 C474.343146,431 473,429.656854 473,428 C473,426.343146 474.343146,425 476,425 C477.656854,425 479,426.343146 479,428 C479,429.656854 477.656854,431 476,431 Z M460,431 C458.343146,431 457,429.656854 457,428 C457,426.343146 458.343146,425 460,425 C461.656854,425 463,426.343146 463,428 C463,429.656854 461.656854,431 460,431 Z M444,431 C442.343146,431 441,429.656854 441,428 C441,426.343146 442.343146,425 444,425 C445.656854,425 447,426.343146 447,428 C447,429.656854 445.656854,431 444,431 Z M428,431 C426.343146,431 425,429.656854 425,428 C425,426.343146 426.343146,425 428,425 C429.656854,425 431,426.343146 431,428 C431,429.656854 429.656854,431 428,431 Z" id="Combined-Shape"></path>
        </g>
    </g>
</svg>