<?xml version="1.0" encoding="UTF-8"?>
<svg width="68px" height="50px" viewBox="0 0 68 50" version="1.1" xmlns="http://www.w3.org/2000/svg" xmlns:xlink="http://www.w3.org/1999/xlink">
    <!-- Generator: sketchtool 52.5 (67469) - http://www.bohemiancoding.com/sketch -->
    <title>35D501EE-90D1-4F37-B27F-C71157944CDA</title>
    <desc>Created with sketchtool.</desc>
    <g id="Page-1" stroke="none" stroke-width="1" fill="none" fill-rule="evenodd">
        <g id="services" transform="translate(-847.000000, -433.000000)" fill-rule="nonzero">
            <g id="Group-Copy" transform="translate(847.000000, 433.000000)">
                <path d="M2.14285714,4.28571429 C0.959389822,4.28571429 0,3.32632446 0,2.14285714 C0,0.959389822 0.959389822,0 2.14285714,0 C3.32632446,0 4.28571429,0.959389822 4.28571429,2.14285714 C4.28571429,3.32632446 3.32632446,4.28571429 2.14285714,4.28571429 Z M47.8571429,50 C46.6736755,50 45.7142857,49.0406102 45.7142857,47.8571429 C45.7142857,46.6736755 46.6736755,45.7142857 47.8571429,45.7142857 C49.0406102,45.7142857 50,46.6736755 50,47.8571429 C50,49.0406102 49.0406102,50 47.8571429,50 Z M36.4285714,50 C35.2451041,50 34.2857143,49.0406102 34.2857143,47.8571429 C34.2857143,46.6736755 35.2451041,45.7142857 36.4285714,45.7142857 C37.6120387,45.7142857 38.5714286,46.6736755 38.5714286,47.8571429 C38.5714286,49.0406102 37.6120387,50 36.4285714,50 Z M25,50 C23.8165327,50 22.8571429,49.0406102 22.8571429,47.8571429 C22.8571429,46.6736755 23.8165327,45.7142857 25,45.7142857 C26.1834673,45.7142857 27.1428571,46.6736755 27.1428571,47.8571429 C27.1428571,49.0406102 26.1834673,50 25,50 Z M13.5714286,50 C12.3879613,50 11.4285714,49.0406102 11.4285714,47.8571429 C11.4285714,46.6736755 12.3879613,45.7142857 13.5714286,45.7142857 C14.7548959,45.7142857 15.7142857,46.6736755 15.7142857,47.8571429 C15.7142857,49.0406102 14.7548959,50 13.5714286,50 Z M2.14285714,50 C0.959389822,50 0,49.0406102 0,47.8571429 C0,46.6736755 0.959389822,45.7142857 2.14285714,45.7142857 C3.32632446,45.7142857 4.28571429,46.6736755 4.28571429,47.8571429 C4.28571429,49.0406102 3.32632446,50 2.14285714,50 Z M47.8571429,38.5714286 C46.6736755,38.5714286 45.7142857,37.6120387 45.7142857,36.4285714 C45.7142857,35.2451041 46.6736755,34.2857143 47.8571429,34.2857143 C49.0406102,34.2857143 50,35.2451041 50,36.4285714 C50,37.6120387 49.0406102,38.5714286 47.8571429,38.5714286 Z M36.4285714,38.5714286 C35.2451041,38.5714286 34.2857143,37.6120387 34.2857143,36.4285714 C34.2857143,35.2451041 35.2451041,34.2857143 36.4285714,34.2857143 C37.6120387,34.2857143 38.5714286,35.2451041 38.5714286,36.4285714 C38.5714286,37.6120387 37.6120387,38.5714286 36.4285714,38.5714286 Z M25,38.5714286 C23.8165327,38.5714286 22.8571429,37.6120387 22.8571429,36.4285714 C22.8571429,35.2451041 23.8165327,34.2857143 25,34.2857143 C26.1834673,34.2857143 27.1428571,35.2451041 27.1428571,36.4285714 C27.1428571,37.6120387 26.1834673,38.5714286 25,38.5714286 Z M13.5714286,38.5714286 C12.3879613,38.5714286 11.4285714,37.6120387 11.4285714,36.4285714 C11.4285714,35.2451041 12.3879613,34.2857143 13.5714286,34.2857143 C14.7548959,34.2857143 15.7142857,35.2451041 15.7142857,36.4285714 C15.7142857,37.6120387 14.7548959,38.5714286 13.5714286,38.5714286 Z M2.14285714,38.5714286 C0.959389822,38.5714286 0,37.6120387 0,36.4285714 C0,35.2451041 0.959389822,34.2857143 2.14285714,34.2857143 C3.32632446,34.2857143 4.28571429,35.2451041 4.28571429,36.4285714 C4.28571429,37.6120387 3.32632446,38.5714286 2.14285714,38.5714286 Z M47.8571429,27.1428571 C46.6736755,27.1428571 45.7142857,26.1834673 45.7142857,25 C45.7142857,23.8165327 46.6736755,22.8571429 47.8571429,22.8571429 C49.0406102,22.8571429 50,23.8165327 50,25 C50,26.1834673 49.0406102,27.1428571 47.8571429,27.1428571 Z M36.4285714,27.1428571 C35.2451041,27.1428571 34.2857143,26.1834673 34.2857143,25 C34.2857143,23.8165327 35.2451041,22.8571429 36.4285714,22.8571429 C37.6120387,22.8571429 38.5714286,23.8165327 38.5714286,25 C38.5714286,26.1834673 37.6120387,27.1428571 36.4285714,27.1428571 Z M25,27.1428571 C23.8165327,27.1428571 22.8571429,26.1834673 22.8571429,25 C22.8571429,23.8165327 23.8165327,22.8571429 25,22.8571429 C26.1834673,22.8571429 27.1428571,23.8165327 27.1428571,25 C27.1428571,26.1834673 26.1834673,27.1428571 25,27.1428571 Z M13.5714286,27.1428571 C12.3879613,27.1428571 11.4285714,26.1834673 11.4285714,25 C11.4285714,23.8165327 12.3879613,22.8571429 13.5714286,22.8571429 C14.7548959,22.8571429 15.7142857,23.8165327 15.7142857,25 C15.7142857,26.1834673 14.7548959,27.1428571 13.5714286,27.1428571 Z M2.14285714,27.1428571 C0.959389822,27.1428571 0,26.1834673 0,25 C0,23.8165327 0.959389822,22.8571429 2.14285714,22.8571429 C3.32632446,22.8571429 4.28571429,23.8165327 4.28571429,25 C4.28571429,26.1834673 3.32632446,27.1428571 2.14285714,27.1428571 Z M47.8571429,15.7142857 C46.6736755,15.7142857 45.7142857,14.7548959 45.7142857,13.5714286 C45.7142857,12.3879613 46.6736755,11.4285714 47.8571429,11.4285714 C49.0406102,11.4285714 50,12.3879613 50,13.5714286 C50,14.7548959 49.0406102,15.7142857 47.8571429,15.7142857 Z M36.4285714,15.7142857 C35.2451041,15.7142857 34.2857143,14.7548959 34.2857143,13.5714286 C34.2857143,12.3879613 35.2451041,11.4285714 36.4285714,11.4285714 C37.6120387,11.4285714 38.5714286,12.3879613 38.5714286,13.5714286 C38.5714286,14.7548959 37.6120387,15.7142857 36.4285714,15.7142857 Z M25,15.7142857 C23.8165327,15.7142857 22.8571429,14.7548959 22.8571429,13.5714286 C22.8571429,12.3879613 23.8165327,11.4285714 25,11.4285714 C26.1834673,11.4285714 27.1428571,12.3879613 27.1428571,13.5714286 C27.1428571,14.7548959 26.1834673,15.7142857 25,15.7142857 Z M13.5714286,15.7142857 C12.3879613,15.7142857 11.4285714,14.7548959 11.4285714,13.5714286 C11.4285714,12.3879613 12.3879613,11.4285714 13.5714286,11.4285714 C14.7548959,11.4285714 15.7142857,12.3879613 15.7142857,13.5714286 C15.7142857,14.7548959 14.7548959,15.7142857 13.5714286,15.7142857 Z M2.14285714,15.7142857 C0.959389822,15.7142857 0,14.7548959 0,13.5714286 C0,12.3879613 0.959389822,11.4285714 2.14285714,11.4285714 C3.32632446,11.4285714 4.28571429,12.3879613 4.28571429,13.5714286 C4.28571429,14.7548959 3.32632446,15.7142857 2.14285714,15.7142857 Z M47.8571429,4.28571429 C46.6736755,4.28571429 45.7142857,3.32632446 45.7142857,2.14285714 C45.7142857,0.959389822 46.6736755,0 47.8571429,0 C49.0406102,0 50,0.959389822 50,2.14285714 C50,3.32632446 49.0406102,4.28571429 47.8571429,4.28571429 Z M36.4285714,4.28571429 C35.2451041,4.28571429 34.2857143,3.32632446 34.2857143,2.14285714 C34.2857143,0.959389822 35.2451041,0 36.4285714,0 C37.6120387,0 38.5714286,0.959389822 38.5714286,2.14285714 C38.5714286,3.32632446 37.6120387,4.28571429 36.4285714,4.28571429 Z M25,4.28571429 C23.8165327,4.28571429 22.8571429,3.32632446 22.8571429,2.14285714 C22.8571429,0.959389822 23.8165327,0 25,0 C26.1834673,0 27.1428571,0.959389822 27.1428571,2.14285714 C27.1428571,3.32632446 26.1834673,4.28571429 25,4.28571429 Z M13.5714286,4.28571429 C12.3879613,4.28571429 11.4285714,3.32632446 11.4285714,2.14285714 C11.4285714,0.959389822 12.3879613,0 13.5714286,0 C14.7548959,0 15.7142857,0.959389822 15.7142857,2.14285714 C15.7142857,3.32632446 14.7548959,4.28571429 13.5714286,4.28571429 Z" id="Combined-Shape" fill="#EBEBEB"></path>
                <circle id="Oval" stroke="#949699" cx="48.2142857" cy="25.3571429" r="19.1428571"></circle>
                <polyline id="Path-2" stroke="#949699" stroke-width="1.5" stroke-linecap="round" stroke-linejoin="round" points="43.5714286 14.2857143 55 25.3571429 43.5714286 36.4285714"></polyline>
            </g>
        </g>
    </g>
</svg>