<?xml version="1.0" encoding="UTF-8"?>
<svg width="70px" height="150px" viewBox="0 0 70 150" version="1.1" xmlns="http://www.w3.org/2000/svg" xmlns:xlink="http://www.w3.org/1999/xlink">
    <!-- Generator: sketchtool 52.5 (67469) - http://www.bohemiancoding.com/sketch -->
    <title>2A577DF7-DFE4-4888-82E9-87554079F902</title>
    <desc>Created with sketchtool.</desc>
    <g id="Page-1" stroke="none" stroke-width="1" fill="none" fill-rule="evenodd">
        <g id="home-page" transform="translate(-135.000000, -245.000000)" fill="#303030" fill-rule="nonzero">
            <path d="M138,251 C136.343146,251 135,249.656854 135,248 C135,246.343146 136.343146,245 138,245 C139.656854,245 141,246.343146 141,248 C141,249.656854 139.656854,251 138,251 Z M202,395 C200.343146,395 199,393.656854 199,392 C199,390.343146 200.343146,389 202,389 C203.656854,389 205,390.343146 205,392 C205,393.656854 203.656854,395 202,395 Z M186,395 C184.343146,395 183,393.656854 183,392 C183,390.343146 184.343146,389 186,389 C187.656854,389 189,390.343146 189,392 C189,393.656854 187.656854,395 186,395 Z M170,395 C168.343146,395 167,393.656854 167,392 C167,390.343146 168.343146,389 170,389 C171.656854,389 173,390.343146 173,392 C173,393.656854 171.656854,395 170,395 Z M154,395 C152.343146,395 151,393.656854 151,392 C151,390.343146 152.343146,389 154,389 C155.656854,389 157,390.343146 157,392 C157,393.656854 155.656854,395 154,395 Z M138,395 C136.343146,395 135,393.656854 135,392 C135,390.343146 136.343146,389 138,389 C139.656854,389 141,390.343146 141,392 C141,393.656854 139.656854,395 138,395 Z M202,379 C200.343146,379 199,377.656854 199,376 C199,374.343146 200.343146,373 202,373 C203.656854,373 205,374.343146 205,376 C205,377.656854 203.656854,379 202,379 Z M186,379 C184.343146,379 183,377.656854 183,376 C183,374.343146 184.343146,373 186,373 C187.656854,373 189,374.343146 189,376 C189,377.656854 187.656854,379 186,379 Z M170,379 C168.343146,379 167,377.656854 167,376 C167,374.343146 168.343146,373 170,373 C171.656854,373 173,374.343146 173,376 C173,377.656854 171.656854,379 170,379 Z M154,379 C152.343146,379 151,377.656854 151,376 C151,374.343146 152.343146,373 154,373 C155.656854,373 157,374.343146 157,376 C157,377.656854 155.656854,379 154,379 Z M138,379 C136.343146,379 135,377.656854 135,376 C135,374.343146 136.343146,373 138,373 C139.656854,373 141,374.343146 141,376 C141,377.656854 139.656854,379 138,379 Z M202,363 C200.343146,363 199,361.656854 199,360 C199,358.343146 200.343146,357 202,357 C203.656854,357 205,358.343146 205,360 C205,361.656854 203.656854,363 202,363 Z M186,363 C184.343146,363 183,361.656854 183,360 C183,358.343146 184.343146,357 186,357 C187.656854,357 189,358.343146 189,360 C189,361.656854 187.656854,363 186,363 Z M170,363 C168.343146,363 167,361.656854 167,360 C167,358.343146 168.343146,357 170,357 C171.656854,357 173,358.343146 173,360 C173,361.656854 171.656854,363 170,363 Z M154,363 C152.343146,363 151,361.656854 151,360 C151,358.343146 152.343146,357 154,357 C155.656854,357 157,358.343146 157,360 C157,361.656854 155.656854,363 154,363 Z M138,363 C136.343146,363 135,361.656854 135,360 C135,358.343146 136.343146,357 138,357 C139.656854,357 141,358.343146 141,360 C141,361.656854 139.656854,363 138,363 Z M202,347 C200.343146,347 199,345.656854 199,344 C199,342.343146 200.343146,341 202,341 C203.656854,341 205,342.343146 205,344 C205,345.656854 203.656854,347 202,347 Z M186,347 C184.343146,347 183,345.656854 183,344 C183,342.343146 184.343146,341 186,341 C187.656854,341 189,342.343146 189,344 C189,345.656854 187.656854,347 186,347 Z M170,347 C168.343146,347 167,345.656854 167,344 C167,342.343146 168.343146,341 170,341 C171.656854,341 173,342.343146 173,344 C173,345.656854 171.656854,347 170,347 Z M154,347 C152.343146,347 151,345.656854 151,344 C151,342.343146 152.343146,341 154,341 C155.656854,341 157,342.343146 157,344 C157,345.656854 155.656854,347 154,347 Z M138,347 C136.343146,347 135,345.656854 135,344 C135,342.343146 136.343146,341 138,341 C139.656854,341 141,342.343146 141,344 C141,345.656854 139.656854,347 138,347 Z M202,331 C200.343146,331 199,329.656854 199,328 C199,326.343146 200.343146,325 202,325 C203.656854,325 205,326.343146 205,328 C205,329.656854 203.656854,331 202,331 Z M186,331 C184.343146,331 183,329.656854 183,328 C183,326.343146 184.343146,325 186,325 C187.656854,325 189,326.343146 189,328 C189,329.656854 187.656854,331 186,331 Z M170,331 C168.343146,331 167,329.656854 167,328 C167,326.343146 168.343146,325 170,325 C171.656854,325 173,326.343146 173,328 C173,329.656854 171.656854,331 170,331 Z M154,331 C152.343146,331 151,329.656854 151,328 C151,326.343146 152.343146,325 154,325 C155.656854,325 157,326.343146 157,328 C157,329.656854 155.656854,331 154,331 Z M138,331 C136.343146,331 135,329.656854 135,328 C135,326.343146 136.343146,325 138,325 C139.656854,325 141,326.343146 141,328 C141,329.656854 139.656854,331 138,331 Z M202,315 C200.343146,315 199,313.656854 199,312 C199,310.343146 200.343146,309 202,309 C203.656854,309 205,310.343146 205,312 C205,313.656854 203.656854,315 202,315 Z M186,315 C184.343146,315 183,313.656854 183,312 C183,310.343146 184.343146,309 186,309 C187.656854,309 189,310.343146 189,312 C189,313.656854 187.656854,315 186,315 Z M170,315 C168.343146,315 167,313.656854 167,312 C167,310.343146 168.343146,309 170,309 C171.656854,309 173,310.343146 173,312 C173,313.656854 171.656854,315 170,315 Z M154,315 C152.343146,315 151,313.656854 151,312 C151,310.343146 152.343146,309 154,309 C155.656854,309 157,310.343146 157,312 C157,313.656854 155.656854,315 154,315 Z M138,315 C136.343146,315 135,313.656854 135,312 C135,310.343146 136.343146,309 138,309 C139.656854,309 141,310.343146 141,312 C141,313.656854 139.656854,315 138,315 Z M202,299 C200.343146,299 199,297.656854 199,296 C199,294.343146 200.343146,293 202,293 C203.656854,293 205,294.343146 205,296 C205,297.656854 203.656854,299 202,299 Z M186,299 C184.343146,299 183,297.656854 183,296 C183,294.343146 184.343146,293 186,293 C187.656854,293 189,294.343146 189,296 C189,297.656854 187.656854,299 186,299 Z M170,299 C168.343146,299 167,297.656854 167,296 C167,294.343146 168.343146,293 170,293 C171.656854,293 173,294.343146 173,296 C173,297.656854 171.656854,299 170,299 Z M154,299 C152.343146,299 151,297.656854 151,296 C151,294.343146 152.343146,293 154,293 C155.656854,293 157,294.343146 157,296 C157,297.656854 155.656854,299 154,299 Z M138,299 C136.343146,299 135,297.656854 135,296 C135,294.343146 136.343146,293 138,293 C139.656854,293 141,294.343146 141,296 C141,297.656854 139.656854,299 138,299 Z M202,283 C200.343146,283 199,281.656854 199,280 C199,278.343146 200.343146,277 202,277 C203.656854,277 205,278.343146 205,280 C205,281.656854 203.656854,283 202,283 Z M186,283 C184.343146,283 183,281.656854 183,280 C183,278.343146 184.343146,277 186,277 C187.656854,277 189,278.343146 189,280 C189,281.656854 187.656854,283 186,283 Z M170,283 C168.343146,283 167,281.656854 167,280 C167,278.343146 168.343146,277 170,277 C171.656854,277 173,278.343146 173,280 C173,281.656854 171.656854,283 170,283 Z M154,283 C152.343146,283 151,281.656854 151,280 C151,278.343146 152.343146,277 154,277 C155.656854,277 157,278.343146 157,280 C157,281.656854 155.656854,283 154,283 Z M138,283 C136.343146,283 135,281.656854 135,280 C135,278.343146 136.343146,277 138,277 C139.656854,277 141,278.343146 141,280 C141,281.656854 139.656854,283 138,283 Z M202,267 C200.343146,267 199,265.656854 199,264 C199,262.343146 200.343146,261 202,261 C203.656854,261 205,262.343146 205,264 C205,265.656854 203.656854,267 202,267 Z M186,267 C184.343146,267 183,265.656854 183,264 C183,262.343146 184.343146,261 186,261 C187.656854,261 189,262.343146 189,264 C189,265.656854 187.656854,267 186,267 Z M170,267 C168.343146,267 167,265.656854 167,264 C167,262.343146 168.343146,261 170,261 C171.656854,261 173,262.343146 173,264 C173,265.656854 171.656854,267 170,267 Z M154,267 C152.343146,267 151,265.656854 151,264 C151,262.343146 152.343146,261 154,261 C155.656854,261 157,262.343146 157,264 C157,265.656854 155.656854,267 154,267 Z M138,267 C136.343146,267 135,265.656854 135,264 C135,262.343146 136.343146,261 138,261 C139.656854,261 141,262.343146 141,264 C141,265.656854 139.656854,267 138,267 Z M202,251 C200.343146,251 199,249.656854 199,248 C199,246.343146 200.343146,245 202,245 C203.656854,245 205,246.343146 205,248 C205,249.656854 203.656854,251 202,251 Z M186,251 C184.343146,251 183,249.656854 183,248 C183,246.343146 184.343146,245 186,245 C187.656854,245 189,246.343146 189,248 C189,249.656854 187.656854,251 186,251 Z M170,251 C168.343146,251 167,249.656854 167,248 C167,246.343146 168.343146,245 170,245 C171.656854,245 173,246.343146 173,248 C173,249.656854 171.656854,251 170,251 Z M154,251 C152.343146,251 151,249.656854 151,248 C151,246.343146 152.343146,245 154,245 C155.656854,245 157,246.343146 157,248 C157,249.656854 155.656854,251 154,251 Z" id="icons"></path>
        </g>
    </g>
</svg>