<?xml version="1.0" encoding="UTF-8"?>
<svg width="16px" height="12px" viewBox="0 0 16 12" version="1.1" xmlns="http://www.w3.org/2000/svg" xmlns:xlink="http://www.w3.org/1999/xlink">
    <!-- Generator: sketchtool 52.5 (67469) - http://www.bohemiancoding.com/sketch -->
    <title>F2F97201-9110-49DB-8A33-4F11841EA81B</title>
    <desc>Created with sketchtool.</desc>
    <g id="Page-1" stroke="none" stroke-width="1" fill="none" fill-rule="evenodd" opacity="0.5">
        <g id="home-page" transform="translate(-1289.000000, -36.000000)" fill="#949699" fill-rule="nonzero">
            <g id="Social-Icons" transform="translate(1169.000000, 34.000000)">
                <g id="youtube" transform="translate(120.000000, 2.000000)">
                    <path d="M15.7835588,2.8 C15.5837669,1.5 14.9843913,0.6 13.5858481,0.4 C11.3881374,0 7.99167534,0 7.99167534,0 C7.99167534,0 4.59521332,0 2.3975026,0.4 C0.998959417,0.6 0.299687825,1.5 0.199791883,2.8 C0,4.1 0,6 0,6 C0,6 0,7.9 0.199791883,9.2 C0.399583767,10.5 0.998959417,11.4 2.3975026,11.6 C4.59521332,12 7.99167534,12 7.99167534,12 C7.99167534,12 11.3881374,12 13.5858481,11.6 C14.9843913,11.3 15.5837669,10.5 15.7835588,9.2 C15.9833507,7.9 15.9833507,6 15.9833507,6 C15.9833507,6 15.9833507,4.1 15.7835588,2.8 Z M5.9937565,9 L5.9937565,3 L10.9885536,6 L5.9937565,9 Z" id="Shape"></path>
                </g>
            </g>
        </g>
    </g>
</svg>